# xmcd CD database file
#
# Track frame offsets:
#	150
#	25074
#	47482
#	68689
#	88204
#	127931
#
# Disc length: 1996 seconds
#
# Revision: 0
# Processed by: cddbd v1.5.2PL0 Copyright (c) Steve Scherf et al.
# Submitted via: CDex 1.70beta2
#
DISCID=4307ca06
DTITLE=Don Bagley - Jazz On The Rocks
DYEAR=1958
DGENRE=Jazz
TTITLE0=Batter Up'
TTITLE1=Come Out Swingin'
TTITLE2=Odd Man Out
TTITLE3=Bull Pen
TTITLE4=Hold In There
TTITLE5=Miss De Minor
EXTD=YEAR: 1958
EXTT0=
EXTT1=
EXTT2=
EXTT3=
EXTT4=
EXTT5=
PLAYORDER=
